<svg xmlns="http://www.w3.org/2000/svg" width="149" height="149" viewBox="0 0 149 149"><g id="Groupe_148" data-name="Groupe 148" transform="translate(-98)"><circle id="Ellipse_17" data-name="Ellipse 17" cx="74.5" cy="74.5" r="74.5" transform="translate(98)" fill="#fff"></circle><g id="Groupe_143" data-name="Groupe 143" transform="translate(-179.27 -263.862)"><path id="Trac&#xE9;_396" data-name="Trac&#xE9; 396" d="M356.864,276.735a61.574,61.574,0,0,1,58.92,43.961h4.025a65.326,65.326,0,0,0-125.881,0h4.026A61.568,61.568,0,0,1,356.864,276.735Z" transform="translate(-5.634)" fill="#493c32"></path><path id="Trac&#xE9;_431" data-name="Trac&#xE9; 431" d="M356.864,276.735a61.574,61.574,0,0,1,58.92,43.961h4.025a65.326,65.326,0,0,0-125.881,0h4.026A61.568,61.568,0,0,1,356.864,276.735Z" transform="translate(708.101 677.558) rotate(180)" fill="#493c32"></path><path id="Trac&#xE9;_399" data-name="Trac&#xE9; 399" d="M559.6,376.449a44.746,44.746,0,0,0,5.281.045c11.454-3,22.057.528,33.455,1.621,1.241-.1,2.476-.246,3.712-.388a51.855,51.855,0,0,0-7.348-3.958c-1.286-.069-2.564-.182-3.842-.33a75.216,75.216,0,0,0-20.7-.953c-2.222.159-4.458.259-6.692.3s-4.471.034-6.7-.029c-.267-.011-.536-.016-.805-.026a50.9,50.9,0,0,0-6.02,2.714c1.436.235,2.888.417,4.343.565C556.053,376.19,557.82,376.343,559.6,376.449Z" transform="translate(-222.84 -84.231)" fill="#775f4f"></path><path id="Trac&#xE9;_400" data-name="Trac&#xE9; 400" d="M488.675,420.976a31.976,31.976,0,0,1-4.847-.187c-12.162-2.255-25.121-.486-37.419.256-1.811-.079-3.619-.145-5.422-.177A99.121,99.121,0,0,0,430,421.2a52.148,52.148,0,0,0-5.534,5.17,70.461,70.461,0,0,1,9.529-1.12c-.69.3-1.361.613-2.005.916-3.463,1.634-6.518,3.789-9.943,5.476a27.656,27.656,0,0,1-2.6,1.091c-.413.623-.82,1.254-1.209,1.9a50.789,50.789,0,0,0,12.149-3.464c3.129-1.37,6.187-2.891,9.481-3.966,1.562-.51,3.133-.8,4.6-1.154,14.234-5.148,29.55-3.382,44.474-1.954,2.424-.238,4.813-.57,6.9-.985.277-.058.556-.116.825-.174q-1.329-1.184-2.733-2.284Q491.308,420.833,488.675,420.976Z" transform="translate(-111.107 -124.565)" fill="#493c32"></path><path id="Trac&#xE9;_401" data-name="Trac&#xE9; 401" d="M413.33,461.218c-3.147-.071-6.328-.224-9.5-.3q1.988-.638,3.971-1.294t3.968-1.3c15.078-8.6,33.337-12.721,50.418-5.65a14.876,14.876,0,0,0,9.629.805c1.465-.169,2.916-.4,4.337-.7.536-.111,1.058-.243,1.584-.377-.3-.4-.6-.8-.916-1.2-.375,0-.756.011-1.129.011-1.5,0-2.994-.026-4.486-.069a15.217,15.217,0,0,1-8.43-1.421c-17.082-7.657-34.753-4.713-50.227,4.346q-2,.7-3.99,1.4c-1.325.467-2.647.932-3.963,1.381a113.578,113.578,0,0,1-14.624,3.762,51.147,51.147,0,0,0-2.341,5.661c2.139-.275,4.268-.576,6.358-.776a93.068,93.068,0,0,1,11.763-.09c1.305.037,2.619.069,3.935.069,2.432.153,5.377-.436,7.144.742.543.28,1.091.536,1.634.808h10.326a71.029,71.029,0,0,1-10.471-5.384A26.985,26.985,0,0,0,413.33,461.218Z" transform="translate(-85.134 -146.336)" fill="#775f4f"></path><path id="Trac&#xE9;_402" data-name="Trac&#xE9; 402" d="M656.776,505.38c3.419-.306,6.925-.346,10.362-.428.335-.008.667-.005,1,0q-.865-2.432-1.954-4.742c-1.931.1-3.827.267-5.595.407-1.674.132-3.347.29-5.013.454-11.939,3.646-21.951-3.422-32.552-6.368,11.19-1.766,20.024,8.248,31.287,4.7,2.063-.37,4.313-.792,6.514-1.346,1.259-.312,2.5-.676,3.682-1.088q-.337-.6-.693-1.2c-.836-.026-1.669-.1-2.5-.116a35.31,35.31,0,0,0-3.79.211c-1.269.127-2.537.272-3.79.328-16.577-2.662-34.247-9.732-50.152.871,10.16.444,19,4.2,28.494,7.042,1.583.473,3.186.921,4.813,1.325,1.275.185,2.6.459,3.939.687h6.141a17.4,17.4,0,0,1,4.741-.615C653.211,505.493,654.975,505.543,656.776,505.38Z" transform="translate(-268.357 -185.417)" fill="#493c32"></path><path id="Trac&#xE9;_403" data-name="Trac&#xE9; 403" d="M405.521,837.141a51.339,51.339,0,0,0,2.878,4.982c10.359.114,19.789-3.667,29.266-6.849H419.65a40.457,40.457,0,0,1-10.841,1.853C407.717,837.18,406.652,837.18,405.521,837.141Z" transform="translate(-100.313 -477.162)" fill="#775f4f"></path><path id="Trac&#xE9;_404" data-name="Trac&#xE9; 404" d="M444.563,846.289a51.6,51.6,0,0,0,4.493,4.887,88.219,88.219,0,0,0,35.606-2.651c1.7-.322,3.366-.642,5.123-.885,1.779-.14,3.364-.04,5.05-.029,1.727.116,3.457.161,5.2.153s3.481-.071,5.232-.177c6.341-.636,12.782-.85,19.252-1.027q1.537-1.873,2.891-3.884a116.728,116.728,0,0,1-16.836,1.162c-1.7.018-3.33-.035-5.152-.008-3.652.042-7.319-.074-10.992-.3-1.836-.116-3.645-.248-5.4-.375-3.076-.148-6.372-.676-9.682.227,3.9-1.222,7.826-3.306,12.193-2.833,1.28-.1,2.587-.182,3.9-.28s2.624-.2,3.934-.309c1.751-.151,3.5-.314,5.168-.475,8.539-.267,16.844-2.337,25.129-4.211H487.389C473.1,838.429,460.022,848.745,444.563,846.289Z" transform="translate(-133.437 -477.162)" fill="#493c32"></path><path id="Trac&#xE9;_405" data-name="Trac&#xE9; 405" d="M572.2,931.571c-1.6.063-3.163.093-4.821.2-4.976.335-9.962.5-14.894.449q-2.464-.032-4.914-.135c-1.585.428-3.189.837-4.8,1.236-9.731,2.395-19.895,4.145-30.1,4.079a51.476,51.476,0,0,0,5.827,3.57,88.232,88.232,0,0,0,23.344-3.184c1.611-.422,3.221-.789,4.837-1.117s3.225-.6,4.841-.85q2.124-.2,4.189-.428c2.814-.322,5.606-.536,8.388-.731,1.394-.1,2.783-.185,4.172-.283a65.637,65.637,0,0,1,8.506-.628c.153-.137.293-.288.445-.428.74-.681,1.472-1.37,2.172-2.089C577.019,931.328,574.627,931.434,572.2,931.571Z" transform="translate(-191.221 -558.576)" fill="#775f4f"></path><path id="Trac&#xE9;_406" data-name="Trac&#xE9; 406" d="M619.935,985.667c1.495-.219,2.993-.433,4.49-.631a112.578,112.578,0,0,1,11.327-1,51.546,51.546,0,0,0,8.4-4.412l-1.413,0a140.375,140.375,0,0,0-24.914,1.808c-1.77.586-3.559,1.1-5.357,1.558-1.578.394-3.162.747-4.757,1.046s-3.193.555-4.8.76c-1.1.169-2.234.293-3.4.391a51.445,51.445,0,0,0,9.571,2.249C612.714,986.989,616.332,986.385,619.935,985.667Z" transform="translate(-264.898 -599.631)" fill="#493c32"></path><g id="Groupe_142" data-name="Groupe 142" transform="translate(287.286 330.134)"><path id="Trac&#xE9;_423" data-name="Trac&#xE9; 423" d="M300.635,664.413l1.808-11.986h3.812L302.862,671.5H299l-2.227-11.24-2.2,11.24h-3.878l-3.406-19.073h3.838l1.795,11.973,2.24-11.973h3.236Z" transform="translate(-287.286 -652.165)" fill="#775f4f"></path><path id="Trac&#xE9;_424" data-name="Trac&#xE9; 424" d="M437.76,662.214a8.9,8.9,0,0,1-1.814,5.96,6.271,6.271,0,0,1-5.037,2.122,6.343,6.343,0,0,1-5.043-2.1,8.765,8.765,0,0,1-1.86-5.888v-3.262a9.377,9.377,0,0,1,1.821-6.137,6.892,6.892,0,0,1,10.074-.039,9.249,9.249,0,0,1,1.86,6.085Zm-3.864-3.2a7.835,7.835,0,0,0-.733-3.838,2.71,2.71,0,0,0-4.546-.046,7.439,7.439,0,0,0-.76,3.687v3.393a7.093,7.093,0,0,0,.747,3.688,2.533,2.533,0,0,0,2.306,1.185,2.468,2.468,0,0,0,2.24-1.159,6.959,6.959,0,0,0,.747-3.6Z" transform="translate(-403.281 -650.699)" fill="#775f4f"></path><path id="Trac&#xE9;_425" data-name="Trac&#xE9; 425" d="M544.578,662.214a8.9,8.9,0,0,1-1.814,5.96,6.272,6.272,0,0,1-5.037,2.122,6.343,6.343,0,0,1-5.043-2.1,8.765,8.765,0,0,1-1.86-5.888v-3.262a9.377,9.377,0,0,1,1.821-6.137,6.892,6.892,0,0,1,10.074-.039,9.249,9.249,0,0,1,1.86,6.085Zm-3.864-3.2a7.834,7.834,0,0,0-.734-3.838,2.709,2.709,0,0,0-4.546-.046,7.434,7.434,0,0,0-.76,3.687v3.393a7.092,7.092,0,0,0,.747,3.688,2.532,2.532,0,0,0,2.305,1.185,2.468,2.468,0,0,0,2.24-1.159,6.96,6.96,0,0,0,.747-3.6Z" transform="translate(-493.908 -650.699)" fill="#775f4f"></path><path id="Trac&#xE9;_426" data-name="Trac&#xE9; 426" d="M639.8,671.5V652.427h5.043a6.941,6.941,0,0,1,5.325,2.122,8.315,8.315,0,0,1,2.024,5.816v3.092a8.348,8.348,0,0,1-1.985,5.9,7.089,7.089,0,0,1-5.469,2.142Zm3.851-15.864V668.3h1.153a3.231,3.231,0,0,0,2.712-1.015,6.043,6.043,0,0,0,.826-3.5V660.47a6.773,6.773,0,0,0-.747-3.727,3.014,3.014,0,0,0-2.541-1.107Z" transform="translate(-586.367 -652.165)" fill="#775f4f"></path><path id="Trac&#xE9;_427" data-name="Trac&#xE9; 427" d="M787.622,664.413l1.808-11.986h3.812L789.849,671.5h-3.864l-2.227-11.24-2.2,11.24h-3.878l-3.406-19.073h3.838l1.795,11.973,2.24-11.973h3.236Z" transform="translate(-700.456 -652.165)" fill="#775f4f"></path><path id="Trac&#xE9;_428" data-name="Trac&#xE9; 428" d="M918.129,671.5h-3.851V652.427h3.851Z" transform="translate(-819.239 -652.165)" fill="#775f4f"></path><path id="Trac&#xE9;_429" data-name="Trac&#xE9; 429" d="M961.033,671.5V652.427h5.043a6.942,6.942,0,0,1,5.325,2.122,8.315,8.315,0,0,1,2.024,5.816v3.092a8.347,8.347,0,0,1-1.985,5.9,7.088,7.088,0,0,1-5.469,2.142Zm3.851-15.864V668.3h1.153a3.23,3.23,0,0,0,2.711-1.015,6.04,6.04,0,0,0,.825-3.5V660.47a6.772,6.772,0,0,0-.747-3.727,3.013,3.013,0,0,0-2.541-1.107Z" transform="translate(-858.907 -652.165)" fill="#775f4f"></path><path id="Trac&#xE9;_430" data-name="Trac&#xE9; 430" d="M1070.872,663.247h-6V668.3h7.1v3.2h-10.951V652.427h10.925v3.21h-7.074v4.506h6Z" transform="translate(-943.739 -652.165)" fill="#775f4f"></path></g></g></g></svg>